<?xml version="1.0" encoding="utf-8"?>
<svg width="465.5" height="465.5" viewBox="0 0 465.5 465.5" fill="none" xmlns="http://www.w3.org/2000/svg">
  <defs>
    <linearGradient id="gradient_1" gradientUnits="userSpaceOnUse" x1="232.75" y1="465.5" x2="232.75" y2="0">
      <stop offset="0" stop-color="#00D02D" />
      <stop offset="0.25" stop-color="#10D93A" />
      <stop offset="0.75" stop-color="#3AF15D" />
      <stop offset="1" stop-color="#51FE71" />
    </linearGradient>
  </defs>
  <g id="Group">
    <path id="Rectangle" d="M0 232.75L0 120.17C0 86.986 11.7323 58.6616 35.197 35.197C58.6616 11.7323 86.986 0 120.17 0L345.33 0C378.514 0 406.838 11.7323 430.303 35.197C453.768 58.6616 465.5 86.986 465.5 120.17L465.5 345.33C465.5 378.514 453.768 406.838 430.303 430.303C406.838 453.768 378.514 465.5 345.33 465.5L120.17 465.5C86.986 465.5 58.6616 453.768 35.197 430.303C11.7323 406.838 0 378.514 0 345.33L0 232.75Z" fill="url(#gradient_1)" fill-rule="evenodd" />
    <path id="Shape" d="M165.73 0C106.556 0.00995636 51.8875 31.6049 22.3371 82.8721C-7.21342 134.139 -7.15131 197.281 22.5 248.49C22.5 248.49 0 334.62 0 334.62C0 334.62 87.55 311.43 87.55 311.43C148.319 343.977 222.898 335.453 274.755 290.033C326.613 244.612 344.89 171.807 320.633 107.279C296.377 42.7509 234.666 0.0131912 165.73 7.62939e-06C165.73 7.62939e-06 165.73 0 165.73 0ZM263.07 262.87C217.28 308.635 145.8 316.338 91.31 281.38C91.31 281.38 40.45 294.87 40.45 294.87C40.45 294.87 53.45 245.19 53.45 245.19C11.1842 185.627 22.787 103.424 79.8876 57.8867C136.988 12.349 219.712 19.3261 268.378 73.7846C317.045 128.243 314.715 211.228 263.07 262.87C263.07 262.87 263.07 262.87 263.07 262.87Z" fill="#000000" transform="translate(67.02 63.66)" />
    <path id="Path" d="M166.015 120.012C166.023 122.734 165.792 125.451 165.325 128.132C164.885 130.85 164.216 133.527 163.325 136.132C161.275 141.922 150.075 149.012 150.075 149.012C142.116 154.309 132.605 156.775 123.075 156.012C120.84 155.783 118.62 155.429 116.425 154.952C112.705 154.122 110.895 153.592 110.895 153.592C109.095 153.062 104.425 151.592 104.425 151.592C99.7547 150.132 98.7047 149.852 98.7047 149.852C91.6113 147.719 84.737 144.917 78.1748 141.482C63.0448 133.262 46.5648 118.532 46.5648 118.532C36.8076 109.857 27.9861 100.185 20.2449 89.6716C16.1272 83.5172 12.5792 77.0003 9.64488 70.2016C9.24489 69.2016 7.27489 64.7116 7.27489 64.7116C5.27489 60.2316 4.57489 58.5016 4.57489 58.5016C3.85489 56.7616 2.57489 53.1616 2.57489 53.1616C1.84465 51.0374 1.24684 48.8699 0.784912 46.6716C0.416946 44.6884 0.169815 42.6848 0.0449066 40.6716C-0.535095 30.1516 4.6949 19.0816 4.6949 19.0816C10.4449 7.18161 16.0249 4.46161 16.0249 4.46161C18.5206 3.33524 21.0939 2.38947 23.725 1.63158C26.3293 0.823822 29.0103 0.287643 31.725 0.0315857C32.5377 -0.0480347 33.3581 0.0231628 34.145 0.241608C36.245 0.811615 40.695 8.59161 40.695 8.59161C42.075 10.6916 44.465 14.5916 44.465 14.5916C46.865 18.4716 48.875 21.5916 48.875 21.5916C50.875 24.7416 52.755 27.5016 52.755 27.5016C53.125 27.9416 54.915 30.2516 54.915 30.2516C55.8983 31.4944 56.7939 32.8042 57.595 34.1716C58.1446 35.1618 58.485 36.2544 58.595 37.3816C58.715 39.6716 55.655 43.2816 55.655 43.2816C53.5761 45.6714 51.3233 47.9041 48.915 49.9615C46.5376 51.9777 44.2835 54.1348 42.1651 56.4215C39.0851 59.8015 39.1651 61.8615 39.1651 61.8615C39.2855 62.7364 39.5243 63.5909 39.875 64.4015C40.535 65.9115 40.985 66.6915 40.985 66.6915C41.425 67.4615 42.735 69.3415 42.735 69.3415C44.045 71.2215 44.165 71.4415 44.165 71.4415C50.2021 80.8768 57.3871 89.5262 65.555 97.1914C77.385 107.771 93.555 115.581 93.555 115.581C93.795 115.681 95.805 116.771 95.805 116.771C97.805 117.871 98.635 118.221 98.635 118.221C99.455 118.581 101.035 119.061 101.035 119.061C101.872 119.346 102.751 119.492 103.635 119.491C105.695 119.381 108.715 115.941 108.715 115.941C110.746 113.578 112.636 111.097 114.375 108.512C116.155 105.895 118.123 103.412 120.265 101.082C123.515 97.6315 125.805 97.5016 125.805 97.5016C126.935 97.492 128.056 97.7025 129.105 98.1216C130.544 98.7813 131.944 99.526 133.295 100.352C135.795 101.872 136.295 102.192 136.295 102.192C139.295 103.752 142.615 105.392 142.615 105.392C145.975 107.042 150.095 108.992 150.095 108.992C154.215 110.942 156.455 112.072 156.455 112.072C164.685 115.632 165.455 117.652 165.455 117.652C165.756 118.407 165.945 119.202 166.015 120.012C166.015 120.012 166.015 120.012 166.015 120.012Z" fill="#000000" transform="translate(149.675 152.519)" />
  </g>
</svg>